<svg width="63" height="63" viewBox="0 0 63 63" fill="none" xmlns="http://www.w3.org/2000/svg">
<path d="M63 31.5C63 32.6867 62.9344 33.8579 62.8058 35.0113C62.7917 35.1399 62.7775 35.2697 62.7621 35.3982C62.6812 36.0514 62.5795 36.6993 62.4599 37.3397C62.4368 37.4669 62.4123 37.5929 62.3866 37.7177C60.1597 48.8455 52.0713 57.8545 41.4758 61.3864C39.8789 61.695 39.3119 60.7139 39.3119 59.8744C39.3119 58.8368 39.3479 55.445 39.3479 51.2304C39.3479 48.2913 38.3412 46.3743 37.2123 45.3972C42.6676 44.7903 48.3388 43.0443 50.5889 36.6029C50.6339 36.4769 50.6764 36.3483 50.7175 36.2185C50.8435 35.8263 50.9553 35.4174 51.0556 34.9906C51.0851 34.8634 51.1148 34.7348 51.1417 34.6036C51.4362 33.2086 51.5956 31.6336 51.5956 29.8541C51.5956 26.4161 50.3729 23.6056 48.3531 21.3993C48.6809 20.606 49.7597 17.402 48.0445 13.0628C48.0445 13.0628 45.4037 12.2168 39.3904 16.2925C36.873 15.5943 34.1768 15.2446 31.5 15.2318C28.8231 15.2446 26.1283 15.5945 23.6147 16.2925C17.5962 12.2168 14.9502 13.0628 14.9502 13.0628C13.2402 17.402 14.319 20.606 14.6455 21.3993C12.6308 23.6056 11.3991 26.4162 11.3991 29.8541C11.3991 31.6323 11.5585 33.2073 11.8542 34.6023C11.8812 34.7334 11.9095 34.862 11.9391 34.9892C12.0394 35.4161 12.1526 35.8262 12.2786 36.2184C12.3197 36.3482 12.3635 36.4768 12.4072 36.6028C14.6559 43.0326 20.3117 44.8031 25.7516 45.4215C24.8503 46.2084 24.0339 47.5982 23.751 49.6348C21.9535 50.4396 17.3944 51.8308 14.5851 47.0157C14.5851 47.0157 12.9188 43.9917 9.75602 43.7692C9.75602 43.7692 6.68181 43.7294 9.5413 45.6837C9.5413 45.6837 11.6049 46.6532 13.0384 50.2931C13.0384 50.2931 14.8873 55.9154 23.6507 54.0101C23.6649 56.6419 23.6932 59.1234 23.6932 59.8742C23.6932 60.706 23.1158 61.6819 21.5408 61.39C10.9389 57.8609 2.8414 48.8507 0.613266 37.7177V37.7164C0.587549 37.5917 0.563063 37.4657 0.541283 37.3397C0.420451 36.6993 0.318814 36.0514 0.23908 35.3982C0.222346 35.2697 0.208195 35.1411 0.194045 35.0113C0.065584 33.8579 0 32.6867 0 31.5C0 14.103 14.1056 0 31.5 0C48.8958 0 63 14.103 63 31.5Z" fill="#3A4454"/>
<path d="M11.6501 44.7518C11.4225 44.6438 11.1756 44.6888 11.1075 44.8495C11.0342 45.0064 11.1616 45.2198 11.3904 45.3226C11.6155 45.4307 11.861 45.3844 11.9305 45.2275C12.0101 45.0706 11.8789 44.8547 11.6501 44.7518Z" fill="#3A4454"/>
<path d="M13.1169 45.995C12.91 45.7765 12.6257 45.7109 12.4715 45.8497C12.3186 45.9911 12.3571 46.2855 12.5628 46.5042C12.7622 46.7241 13.0565 46.7897 13.207 46.6507C13.3639 46.5092 13.3227 46.2174 13.1169 45.995Z" fill="#3A4454"/>
<path d="M14.4528 47.7061C14.2548 47.4284 13.9436 47.3076 13.7495 47.4413C13.5515 47.5763 13.5515 47.9119 13.7443 48.1922C13.9397 48.4725 14.2547 48.5985 14.4489 48.4635C14.6456 48.3272 14.6456 47.9904 14.4528 47.7061Z" fill="#3A4454"/>
<path d="M15.9775 49.4127C15.7062 49.1543 15.3359 49.1015 15.1611 49.2919C14.9888 49.4821 15.0646 49.8435 15.3398 50.0967C15.6097 50.3565 15.9775 50.4079 16.1498 50.2175C16.3337 50.0285 16.2502 49.6661 15.9775 49.4127Z" fill="#3A4454"/>
<path d="M17.9817 50.5889C17.6217 50.4771 17.2656 50.5941 17.1923 50.8422C17.1203 51.0916 17.353 51.3809 17.7091 51.4889C18.0665 51.593 18.42 51.4812 18.4972 51.2343C18.5706 50.9837 18.338 50.697 17.9817 50.5889Z" fill="#3A4454"/>
<path d="M20.394 50.9646C20.0172 50.971 19.7216 51.1831 19.7216 51.4454C19.7254 51.7012 20.0302 51.9121 20.4068 51.9032C20.781 51.8993 21.0844 51.6833 21.0753 51.4237C21.0754 51.1665 20.7681 50.9568 20.394 50.9646Z" fill="#3A4454"/>
<path d="M23.4746 51.0159C23.427 50.7575 23.0928 50.6058 22.7212 50.67C22.3548 50.7368 22.09 50.9978 22.1362 51.2575C22.1825 51.5083 22.5206 51.6651 22.8871 51.5982C23.2587 51.5289 23.5184 51.2692 23.4746 51.0159Z" fill="#3A4454"/>
</svg>
