<svg width="40" height="40" viewBox="0 0 40 40" fill="none" xmlns="http://www.w3.org/2000/svg">
<path d="M31.4876 1.11983V1.1157C30.7776 0.401963 29.8125 0.000413223 28.8058 0H11.1901C9.09783 0.00681818 7.40352 1.70114 7.3967 3.79339V36.2025C7.39711 37.2092 7.79866 38.1743 8.5124 38.8843C9.22139 39.597 10.1848 39.9984 11.1901 40H28.8099C29.8152 39.9984 30.7786 39.597 31.4876 38.8843C32.2003 38.1753 32.6018 37.2119 32.6033 36.2066V3.79752C32.6018 2.79225 32.2003 1.82882 31.4876 1.11983ZM20 37.4256C19.434 37.4256 18.9752 36.9668 18.9752 36.4008C18.9752 35.8348 19.434 35.376 20 35.376C20.566 35.376 21.0248 35.8348 21.0248 36.4008C21.0248 36.9668 20.566 37.4256 20 37.4256ZM29.5909 30.9917C29.5909 32.3611 28.4809 33.4711 27.1116 33.4711H12.8843C11.515 33.4711 10.405 32.3611 10.405 30.9917V6.83884C10.405 5.46952 11.515 4.3595 12.8843 4.3595H27.1157C28.485 4.3595 29.595 5.46952 29.595 6.83884L29.5909 30.9917Z" fill="white"/>
</svg>
