<svg width="60" height="60" viewBox="0 0 60 60" fill="none" xmlns="http://www.w3.org/2000/svg">
<g clip-path="url(#clip0)">
<path d="M30.0008 0C46.5697 0 60.0008 13.4313 60.0008 30C60.0008 46.5687 46.5697 60 30.0008 60C13.4323 60 0.000999451 46.5687 0.000999451 30C0.000999451 13.4313 13.4323 0 30.0008 0Z" fill="#FF757C"/>
<path d="M19.2647 27.8476C20.8094 25.2514 23.2435 22.2379 20.7716 17.6562C17.1326 1.74605 33.9023 -1.47977 36.4377 5.08636C40.5638 6.64203 40.4538 15.2066 38.332 19.6882C38.2374 21.5322 36.32 23.1406 39.7851 27.8987L40.0345 27.8442L40.0342 27.8444C35.5389 29.1473 24.0169 28.5475 19.2647 27.8476Z" fill="#666666"/>
<path d="M26.9744 24.4945C26.82 27.3439 25.8086 28.4196 24.4064 29.1686C23.6929 29.7989 18.3243 29.9679 16.7545 32.502C16.4271 33.0307 16.2595 38.5933 15.3543 41.1665C21.9164 45.4642 38.0843 45.4642 44.6464 41.1665C43.741 38.5933 43.8186 33.0311 43.4912 32.5025C41.8339 29.826 36.1919 29.7949 35.5357 29.248C34.1642 28.4803 33.179 27.3514 33.0263 24.4945C33.0263 24.4945 30.9766 26.0846 29.7023 25.8399C28.4275 25.5955 26.9744 24.4945 26.9744 24.4945Z" fill="#FED198"/>
<path d="M26.9058 25.2716C27.6527 25.716 28.8984 27.1069 30.0642 27.1227C31.2259 27.1384 32.8619 25.4208 33.0955 25.2941C33.0753 25.1321 33.0586 24.9634 33.0451 24.788L33.026 24.803L33.0249 24.8038L33.0241 24.804C32.9615 24.8531 30.9563 26.4197 29.7016 26.1742C28.4655 25.9323 27.0615 24.8699 26.9781 24.8058L26.9543 24.7877C26.9414 24.9551 26.9249 25.1165 26.9058 25.2716Z" fill="#F0B97D"/>
<path d="M23.6713 19.8214C24.9357 22.5293 25.4034 23.5865 26.9738 24.8038C26.9738 24.8038 28.427 25.9256 29.7016 26.1752C30.9759 26.4242 33.0256 24.8038 33.0256 24.8038C34.5963 23.5865 35.0635 22.5293 36.328 19.8214C36.6381 19.9865 36.9621 20.2105 37.2134 19.922C37.4652 19.6333 38.6627 15.8873 38.4472 15.382C38.2317 14.8763 38.0213 15.1988 37.7005 15.4277C37.7172 15.3187 37.4468 16.7813 37.4506 16.5591C37.4809 14.7908 36.2381 14.5099 35.8484 9.83118C30.1173 15.5173 24.7635 12.9077 22.8982 13.2888C22.358 13.3988 22.199 14.7831 22.2988 15.4279C20.2756 13.9841 22.7341 19.8632 22.7856 19.922C23.0375 20.2106 23.3612 19.9865 23.671 19.8214H23.6713Z" fill="#FED198"/>
<path d="M24.4053 29.1672C22.4791 30.1963 18.952 28.9527 16.7541 32.5015C16.4275 33.0297 15.1744 38.5928 14.2688 41.166C20.8306 46.2256 39.1689 46.2551 45.7312 41.166C44.8258 38.5928 43.8179 33.0299 43.4908 32.5017C41.2878 28.9431 37.507 30.1947 35.5782 29.1593L30.201 40.1508L24.4051 29.167H24.4053V29.1672Z" fill="#0E7886"/>
<path d="M26.9426 33.9687C28.6155 34.565 31.4617 34.5687 33.2269 33.9663L30.201 40.1517L26.9426 33.9687Z" fill="white"/>
<path d="M13.1632 33.0442C23.5459 31.687 27.6783 34.2922 30 36.3435C26.5493 34.3569 19.926 34.4881 13.4549 35.6444L13.1632 33.0442Z" fill="white"/>
<path d="M46.8369 33.044C36.4543 31.6868 32.3222 34.2917 30.0002 36.343C34.1174 33.9724 41.8544 34.8229 46.5395 35.6807L46.8369 33.044Z" fill="white"/>
<path d="M10.6034 36.0532C17.9252 34.3848 26.1303 33.8581 30.1119 36.1504C34.0935 33.8581 42.0754 34.3848 49.3974 36.0532C48.9781 50.4574 49.3279 38.4352 48.7693 57.6607C48.3404 57.5799 36.7686 55.8587 31.1749 57.5372C30.2435 57.5367 30.0276 57.5367 29.0923 57.5372C22.9511 55.751 11.6341 57.585 11.2311 57.6607C10.6543 37.8102 11.0362 50.9767 10.6034 36.0532Z" fill="#15BDB1"/>
<path d="M11.5274 34.7658L11.6387 35.9103C18.7115 34.4089 26.395 34.0193 30.2071 36.2142L30.2074 36.214C30.1939 36.2037 24.5465 31.9574 11.5276 34.7655L11.5274 34.7658Z" fill="#DFE1E3"/>
<path d="M48.4724 34.8296L48.361 35.9741C41.2882 34.4727 33.6044 34.0831 29.7925 36.278L29.7923 36.2778C29.8058 36.2677 35.4532 32.0212 48.4725 34.8293V34.8296H48.4724Z" fill="#DFE1E3"/>
<path d="M14.584 41.9246L12.5446 42.0336L10.5148 42.1773C9.67458 42.2373 9.81485 43.7421 10.652 43.6428L12.8648 43.3808L14.545 43.2395C15.3852 43.1684 15.1483 41.8941 14.584 41.9246ZM14.3036 46.606L11.1405 46.9757C10.462 47.0545 10.6256 48.5661 11.2777 48.4411L14.4503 47.8307C15.1134 47.703 14.9731 46.5276 14.3036 46.606ZM14.7057 44.965C15.5448 44.8865 15.7162 46.1831 14.8798 46.29L10.8752 46.8016C10.039 46.9086 9.89899 45.4149 10.7379 45.3363L14.7057 44.965ZM15.2648 43.3271C16.2474 43.2351 16.3846 44.7004 15.402 44.7924L10.748 45.2284C9.76563 45.3203 9.62876 43.855 10.6108 43.763L15.2648 43.3271Z" fill="#FED198"/>
<path d="M14.3201 42.2577L14.3917 43.0236L14.9023 42.9755C14.9883 42.6888 14.9519 42.4179 14.8255 42.1565L14.3199 42.2575L14.3201 42.2577Z" fill="white"/>
<path d="M15.1979 43.6813L15.279 44.5511L15.756 44.5064C15.9247 44.1777 15.9172 43.8656 15.6689 43.5763L15.1976 43.6812L15.1979 43.6813Z" fill="white"/>
<path d="M14.561 45.3074L14.6326 46.073L15.2173 46.0183C15.278 45.7374 15.2548 45.4643 15.1406 45.1995L14.561 45.3074Z" fill="white"/>
<path d="M14.0815 46.9988L14.1746 47.6047L14.7609 47.5041C14.8141 47.2734 14.7834 47.0568 14.6614 46.8558L14.0815 46.9985V46.9988Z" fill="white"/>
<path d="M45.4158 41.9246L47.4552 42.0336L49.485 42.1773C50.3253 42.2373 50.185 43.7421 49.3478 43.6428L47.1351 43.3808L45.4548 43.2395C44.6145 43.1684 44.8514 41.8941 45.4158 41.9246ZM45.6961 46.606L48.8592 46.9757C49.5378 47.0545 49.3742 48.5661 48.722 48.4411L45.5494 47.8307C44.8866 47.703 45.0266 46.5276 45.6961 46.606ZM45.294 44.965C44.4549 44.8865 44.2835 46.1831 45.1199 46.29L49.1246 46.8016C49.9607 46.9086 50.1007 45.4149 49.2618 45.3363L45.294 44.965ZM44.7349 43.3271C43.7523 43.2351 43.6151 44.7004 44.5977 44.7924L49.2517 45.2284C50.2341 45.3203 50.371 43.855 49.3889 43.763L44.7349 43.3271Z" fill="#FED198"/>
<path d="M45.6803 42.2577L45.6087 43.0236L45.0979 42.9755C45.0118 42.6888 45.0483 42.4179 45.1746 42.1565L45.6803 42.2575V42.2577Z" fill="white"/>
<path d="M44.8024 43.6813L44.7213 44.5511L44.2444 44.5064C44.0756 44.1777 44.0831 43.8656 44.3315 43.5763L44.8028 43.6812L44.8024 43.6813Z" fill="white"/>
<path d="M45.4396 45.3074L45.368 46.073L44.7832 46.0183C44.7225 45.7374 44.7457 45.4643 44.86 45.1995L45.4396 45.3074Z" fill="white"/>
<path d="M45.9183 46.9988L45.8253 47.6047L45.239 47.5041C45.1858 47.2734 45.2165 47.0568 45.3385 46.8558L45.9183 46.9985V46.9988Z" fill="white"/>
<path d="M29.1151 35.6713H31.1744V57.5372H29.1151V35.6713Z" fill="#20D0C2"/>
</g>
<defs>
<clipPath id="clip0">
<rect width="60" height="60" fill="white"/>
</clipPath>
</defs>
</svg>
