<svg width="60" height="60" viewBox="0 0 60 60" fill="none" xmlns="http://www.w3.org/2000/svg">
<circle cx="30" cy="30" r="30" fill="#3A4454"/>
<g clip-path="url(#clip0)">
<path d="M19.44 21.48L21.3311 42.6893L29.8169 45.0447L38.3264 42.6862L40.2196 21.48H19.44ZM35.6611 33.3131L35.1103 38.444L35.1124 38.8835L29.8298 40.3589V40.3591L29.8256 40.3626L24.5008 38.9037L24.1406 34.8394H26.7518L26.9369 36.8939L29.8307 37.6662L29.8298 37.6697V37.6622L32.7346 36.843L33.0412 33.4331H26.9693L26.9172 32.8812L26.7986 31.5576L26.7365 30.855H33.2723L33.51 28.2769H23.5554L23.5031 27.6701L23.3845 26.2568L23.3224 25.4644H36.3529L36.2904 26.2458L35.6611 33.3131Z" fill="white"/>
<path d="M35.8593 18.3689L34.1838 16.4063H35.8593V15.2344H32.1093V16.257L34.0757 18.0469H32.1093V19.2188H35.8593V18.3689ZM31.4062 18.3689L29.8108 16.4063H31.4062V15.2344H27.8906V16.257L29.703 18.0469H27.8906V19.2188H31.4062V18.3689ZM27.1875 18.0469H25.3125V16.4063H27.1875V15.2344H23.9062V19.2188H27.1875V18.0469Z" fill="white"/>
</g>
<defs>
<clipPath id="clip0">
<rect width="30" height="30" fill="white" transform="translate(15 15)"/>
</clipPath>
</defs>
</svg>
