<svg width="60" height="60" viewBox="0 0 60 60" fill="none" xmlns="http://www.w3.org/2000/svg">
<g clip-path="url(#clip0)">
<path fill-rule="evenodd" clip-rule="evenodd" d="M14.2542 19.3701C16.058 19.3701 17.533 20.8449 17.533 22.6488C17.533 28.4354 19.0976 32.2422 19.0976 36.667C19.0976 40.9256 17.6692 44.5497 15.6793 45.8818V49.1837L10.248 51.5554L4.85988 49.1836C3.52125 43.0348 0 40.5468 0 30.7275C0 20.4663 4.02281 12.1483 8.98242 12.1483C9.66668 12.1483 10.3344 12.3078 10.9789 12.6068V22.6487C10.9789 20.8449 12.4538 19.3701 14.2542 19.3701V19.3701Z" fill="#FFCBBE"/>
<path fill-rule="evenodd" clip-rule="evenodd" d="M7.40122 6.84011H10.155C10.484 6.78034 10.7429 6.52124 10.8028 6.18901V3.43511C10.8028 1.63792 12.2711 0.169678 14.0682 0.169678C15.862 0.169678 17.3304 1.63792 17.3304 3.43511V6.1889C17.3902 6.52112 17.6494 6.78022 17.9815 6.83999H20.7353C22.5292 6.83999 24.0007 8.30823 24.0007 10.102V13.5069H27.4023C29.1995 13.5069 30.6676 14.9751 30.6676 16.7723C30.6676 18.5661 29.1995 20.0344 27.4023 20.0344H24.0007V23.4392C24.0007 25.233 22.5292 26.7014 20.7353 26.7014H7.40122C5.60403 26.7014 4.13579 25.2332 4.13579 23.4392V10.1021C4.13579 8.30835 5.60403 6.84011 7.40122 6.84011V6.84011Z" fill="#CCF49F"/>
<path fill-rule="evenodd" clip-rule="evenodd" d="M14.2542 19.3702C16.058 19.3702 17.533 20.845 17.533 22.6488C17.533 28.4354 19.0976 32.2423 19.0976 36.667C19.0976 40.9256 17.6692 44.5498 15.6793 45.8818V49.1837H10.9789V22.6488C10.9789 20.845 12.4537 19.3702 14.2542 19.3702V19.3702Z" fill="#FFCBBE"/>
<path fill-rule="evenodd" clip-rule="evenodd" d="M45.7458 19.3701C43.9418 19.3701 42.467 20.8449 42.467 22.6488C42.467 28.4354 40.9023 32.2422 40.9023 36.667C40.9023 40.9256 42.3306 44.5497 44.3205 45.8818V49.1837L49.9744 51.6452L55.14 49.1837C56.4788 43.0348 60 40.5468 60 30.7275C60 20.4663 55.9805 12.1483 51.021 12.1483C50.3333 12.1483 49.6656 12.3078 49.0245 12.6068V22.6487C49.0245 20.8449 47.5496 19.3701 45.7458 19.3701V19.3701Z" fill="#FFCBBE"/>
<path fill-rule="evenodd" clip-rule="evenodd" d="M51.6354 6.84011H48.8816C48.5527 6.78034 48.2903 6.52124 48.2339 6.18901V3.43511C48.2339 1.63792 46.7657 0.169678 44.9685 0.169678C43.1713 0.169678 41.703 1.63792 41.703 3.43511V6.1889C41.6467 6.52112 41.3842 6.78022 41.0554 6.83999H38.3016C36.5044 6.83999 35.0363 8.30823 35.0363 10.102V12.8592C35.096 13.188 35.3551 13.4471 35.6839 13.5069H38.441C40.2349 13.5069 41.703 14.9751 41.703 16.7723C41.703 18.5661 40.2349 20.0344 38.441 20.0344H35.6839C35.355 20.0941 35.0959 20.3532 35.0363 20.6822V23.4392C35.0363 25.233 36.5044 26.7014 38.3016 26.7014H51.6355C53.4327 26.7014 54.9011 25.2332 54.9011 23.4392V10.1021C54.9009 8.30835 53.4326 6.84011 51.6354 6.84011V6.84011Z" fill="#FF6978"/>
<path fill-rule="evenodd" clip-rule="evenodd" d="M45.7458 19.3702C43.9418 19.3702 42.467 20.845 42.467 22.6489C42.467 28.4355 40.9023 32.2423 40.9023 36.6671C40.9023 40.3111 41.9553 43.4768 43.4933 45.1643C44.264 46.0115 44.3305 46.5761 44.3205 47.2704V49.1839H49.0244V22.6489C49.0245 20.845 47.5496 19.3702 45.7458 19.3702V19.3702Z" fill="#FFCBBE"/>
<path fill-rule="evenodd" clip-rule="evenodd" d="M18.8485 58.8636V52.3528C18.8485 50.6088 17.4233 49.1838 15.6794 49.1838H4.86003C3.11944 49.1838 1.69421 50.6089 1.69421 52.3528V58.8636C1.76065 59.3619 2.15921 59.7605 2.66089 59.8303H17.8818C18.3835 59.7605 18.7787 59.3619 18.8485 58.8636V58.8636Z" fill="#A5CDFF"/>
<path fill-rule="evenodd" clip-rule="evenodd" d="M41.1515 58.8636V52.3528C41.1515 50.6088 42.5798 49.1838 44.3205 49.1838H55.1401C56.8841 49.1838 58.3091 50.6089 58.3091 52.3528V58.8636C58.2393 59.3619 57.844 59.7605 57.3424 59.8303H42.1182C41.6167 59.7605 41.2213 59.3619 41.1515 58.8636V58.8636Z" fill="#A5CDFF"/>
<path d="M10.9789 32.488C10.9789 32.973 10.5837 33.3683 10.0986 33.3683C9.6137 33.3683 9.22171 32.973 9.22171 32.488V26.7014H10.9791V32.488H10.9789Z" fill="#F0B6A6"/>
<path d="M50.7818 32.488C50.7818 32.973 50.3864 33.3683 49.9013 33.3683C49.4164 33.3683 49.0244 32.973 49.0244 32.488V26.7014H50.7818V32.488Z" fill="#F0B6A6"/>
<path fill-rule="evenodd" clip-rule="evenodd" d="M16.2839 34.7933C16.2839 38.4573 15.2276 41.6496 13.6663 43.3172C12.7693 44.2772 12.8657 45.5495 12.8691 46.0411V49.1836H15.6793V47.3467C15.6793 45.8817 16.0945 46.0312 17.2638 44.161C18.3833 42.3705 19.0975 39.6764 19.0975 36.6669C19.0975 32.2422 17.5329 28.4353 17.5329 22.6487C17.5329 20.8948 16.141 19.453 14.407 19.3734C14.6064 19.7985 14.7226 20.2736 14.7226 20.7719C14.7226 26.5585 16.2839 30.3687 16.2839 34.7933V34.7933Z" fill="#F0B6A6"/>
<path fill-rule="evenodd" clip-rule="evenodd" d="M21.0708 13.0319V23.4392C21.0708 25.233 19.5992 26.7014 17.8055 26.7014H20.7353C22.5292 26.7014 24.0007 25.2332 24.0007 23.4392V20.0344H27.4023C29.1995 20.0344 30.6676 18.5661 30.6676 16.7723C30.6676 14.9753 29.1995 13.5069 27.4023 13.5069H24.0007V10.1021C24.0007 8.30835 22.5292 6.84011 20.7353 6.84011H17.9815C17.6493 6.78034 17.3902 6.52124 17.3304 6.18901V3.43511C17.3304 1.63792 15.8622 0.169678 14.0683 0.169678C12.3808 0.169678 10.979 1.46847 10.8162 3.11612C10.9225 3.10616 11.0288 3.09948 11.1383 3.09948C12.9322 3.09948 14.4038 4.56772 14.4038 6.36491V9.1187C14.4603 9.45093 14.7194 9.71003 15.0515 9.7698H17.8054C19.5992 9.76991 21.0708 11.2382 21.0708 13.0319V13.0319Z" fill="#B3E59F"/>
<path fill-rule="evenodd" clip-rule="evenodd" d="M51.9709 13.0319V23.4392C51.9709 25.1267 50.6721 26.5253 49.0244 26.688V26.7013H50.7817H51.6353C53.4325 26.7013 54.9008 25.233 54.9008 23.4391V19.2702V13.9652V10.1021C54.9008 8.30835 53.4325 6.84011 51.6353 6.84011H48.8815C48.5526 6.78034 48.2902 6.52124 48.2338 6.18901V3.43511C48.2338 1.63792 46.7656 0.169678 44.9684 0.169678C43.2809 0.169678 41.8824 1.46847 41.7195 3.11612C41.8225 3.10616 41.9321 3.09948 42.0385 3.09948C43.8355 3.09948 45.3039 4.56772 45.3039 6.36491V9.1187C45.3604 9.45093 45.6229 9.71003 45.9516 9.7698H48.7055C50.2235 9.7698 51.5091 10.8194 51.8712 12.228C51.9244 12.4373 51.9576 12.6565 51.9675 12.8791C51.9709 12.9291 51.9709 12.9821 51.9709 13.0319V13.0319Z" fill="#E85A68"/>
<path fill-rule="evenodd" clip-rule="evenodd" d="M57.0701 30.7275C57.0701 40.5469 53.5488 43.0349 52.2101 49.1837H55.1401C56.4788 43.0349 60 40.5469 60 30.7275C60 23.343 57.9172 16.9617 54.9009 13.9655V18.616C56.2529 21.8681 57.0701 26.1001 57.0701 30.7275Z" fill="#F0B6A6"/>
<path fill-rule="evenodd" clip-rule="evenodd" d="M55.3792 52.3528V58.8636C55.3095 59.3619 54.9142 59.7605 54.4125 59.8303H57.3424C57.844 59.7605 58.2394 59.3619 58.3091 58.8636V52.3528C58.3091 50.6088 56.8841 49.1838 55.1401 49.1838H52.2101C52.8677 49.1838 53.479 49.3864 53.9872 49.7319C54.8245 50.3066 55.3792 51.2666 55.3792 52.3528V52.3528Z" fill="#8ABFFF"/>
<path fill-rule="evenodd" clip-rule="evenodd" d="M15.9185 52.3528V58.8636C15.8488 59.3619 15.4535 59.7605 14.9518 59.8303H17.8818C18.3833 59.7605 18.7786 59.3619 18.8484 58.8636V52.3528C18.8484 50.6088 17.4233 49.1838 15.6793 49.1838H12.7494C13.4071 49.1838 14.0216 49.3864 14.5266 49.7319C15.367 50.3066 15.9185 51.2666 15.9185 52.3528V52.3528Z" fill="#8ABFFF"/>
</g>
<defs>
<clipPath id="clip0">
<rect width="60" height="60" fill="white"/>
</clipPath>
</defs>
</svg>
