<svg width="60" height="60" viewBox="0 0 60 60" fill="none" xmlns="http://www.w3.org/2000/svg">
<g clip-path="url(#clip0)">
<path d="M57.6138 40.8993L53.0596 40.5372C53.4971 40.5372 54.8714 40.4132 55.2178 40.1985C55.596 39.9641 55.9002 39.6213 56.087 39.2137C56.221 38.9211 56.2945 38.5952 56.2917 38.2517C56.2815 36.9987 55.4673 36.0043 54.2142 36.0043H50.3708L39.7054 34.7971L40.3556 30.4013C40.8468 29.0898 40.3522 27.8804 39.0039 27.5024C38.5018 27.3617 37.9662 27.3192 37.6778 27.7535L31.7731 37.3033L32.4884 37.987C32.9227 38.2754 32.8802 38.328 32.7395 38.8301C32.3614 40.1785 30.9105 40.9145 29.5992 40.4233L24.2376 37.3586L23.0303 50.6126H31.1465L32.7857 52.9442C33.3108 53.691 34.1666 54.1354 35.0794 54.1356H48.4017L50.8161 53.8941C52.0868 53.8941 52.9158 53.0958 52.8918 51.8253C52.8683 50.5937 52.1043 49.6027 50.8672 49.6027H51.8523L54.2668 49.482C55.182 49.482 55.7291 49.0602 56.0868 48.2792C56.2184 47.9921 56.2917 47.6728 56.2917 47.3362C56.2917 46.0846 55.5185 45.0699 54.2668 45.0699H55.2519L57.6664 44.9492C58.5816 44.9492 59.1287 44.5273 59.4864 43.7464C59.6204 43.4539 59.6941 43.1279 59.6912 42.7844C59.6811 41.5316 58.8668 40.8993 57.6138 40.8993Z" fill="#D88A55"/>
<path d="M32.4884 37.7455L22.6747 31.6775L22.3223 32.2473C22.0339 32.6817 21.4984 32.8807 20.9964 32.7399C19.648 32.3618 18.912 30.9109 19.4032 29.5996L22.7094 22.7893L9.62949 23.9966V31.2142L7.29782 32.8534C6.55102 33.3784 6.10651 34.2342 6.10651 35.147V50.8838C6.10651 52.1544 7.14631 53.225 8.41682 53.2009C9.03251 53.1891 9.34676 52.6904 9.74841 52.2815C10.1501 51.8726 10.6394 51.5535 10.6394 50.9349V54.3345C10.6394 55.2497 11.1819 56.0382 11.9629 56.3959C12.2499 56.5275 12.5694 56.6008 12.9058 56.6008C13.6163 56.6008 14.0089 56.1533 14.4244 55.6417C14.7411 55.2518 15.1722 54.8757 15.1722 54.3343V57.7339C15.1722 58.6491 15.7147 59.4377 16.4957 59.7955C16.7882 59.9296 17.1142 60.0032 17.4576 60.0003C18.7106 59.99 19.4636 58.9344 19.4636 57.6813L19.705 54.3343C19.705 54.7718 19.829 55.1804 20.0437 55.5267C20.2781 55.905 20.6208 56.2091 21.0285 56.3959C21.321 56.53 21.647 56.3621 21.9905 56.3592C23.2435 56.349 23.9964 55.5348 23.9964 54.2817L24.2379 38.5657L29.8409 40.6646C31.1522 41.1558 32.6032 40.4198 32.9812 39.0714C33.1217 38.5694 32.9229 38.0339 32.4884 37.7455Z" fill="#F6A96C"/>
<path d="M18.5819 32.7399C19.084 32.8807 19.6196 32.6817 19.908 32.2473L19.9701 32.1468C19.3187 31.508 19.0585 30.5198 19.4032 29.5996L22.9508 22.7893L19.0876 23.9966L16.9887 29.5996C16.4975 30.9109 17.2336 32.3618 18.5819 32.7399Z" fill="#EA9B58"/>
<path d="M23.0302 38.5658C22.3634 38.5658 21.8229 39.1063 21.8229 39.773V54.2818C21.8229 55.1002 21.3973 55.8322 20.7541 56.2459C20.8416 56.3018 20.933 56.3524 21.0281 56.3959C21.3318 56.5351 21.6717 56.6091 22.0297 56.6001C23.2684 56.5688 24.2374 55.5138 24.2374 54.2748V38.5658H23.0302Z" fill="#EA9B58"/>
<path d="M27.5116 22.2554C27.0772 21.967 26.8783 21.4314 27.019 20.9295C27.3971 19.5811 28.848 18.845 30.1593 19.3363L35.7624 21.4352L36.9696 9.38846H28.8534L27.2142 7.05679C26.6892 6.30999 25.8334 5.86548 24.9206 5.86548H9.1838C7.91318 5.86548 6.84272 6.90528 6.86674 8.17578C6.89016 9.40729 7.89567 10.3983 9.13274 10.3983L5.73314 10.519C4.81793 10.519 4.02936 10.9409 3.67165 11.7218C3.54006 12.0089 3.46678 12.3283 3.46678 12.6648C3.46678 13.9165 4.48147 14.9312 5.73314 14.9312L2.33354 15.0519C1.41833 15.0519 0.629759 15.4737 0.271933 16.2547C0.137929 16.5472 0.0644074 16.8731 0.067184 17.2166C0.0774456 18.4696 1.13306 19.464 2.38618 19.464H5.73314C5.29564 19.464 4.8871 19.7087 4.54075 19.9234C4.16252 20.1578 3.85829 20.3798 3.67153 20.7875C3.53753 21.08 3.46388 21.406 3.46678 21.7494C3.47704 23.0024 4.53278 23.9968 5.78578 23.9968H21.5019L19.403 29.5999C18.9118 30.9112 19.6478 32.3622 20.9962 32.7402C21.4983 32.8809 22.0338 32.682 22.3221 32.2476L27.559 23.7778L27.9854 22.6978L27.5116 22.2554Z" fill="#FED2A4"/>
<path d="M36.9693 9.38843H33.3476V20.5308L35.7621 21.4353L36.9693 9.38843Z" fill="#FFBD86"/>
<path d="M27.7534 22.2555C27.3191 21.9671 27.1201 21.4316 27.2609 20.9296C27.4404 20.2895 27.6204 19.7878 28.1538 19.4895L27.7452 19.3364C26.4339 18.8452 24.9829 19.5812 24.6049 20.9296C24.4642 21.4316 24.6631 21.9672 25.0975 22.2555L27.5595 23.7778L28.2273 22.6978L27.7534 22.2555Z" fill="#FFBD86"/>
<path d="M38.1821 30.4008L36.6941 34.3731C36.3984 35.1623 36.9819 36.0038 37.8247 36.0038H38.4977L43.469 29.4248C43.9602 28.1134 40.738 26.3645 39.3896 25.9864C38.8875 25.8456 37.9514 26.3976 37.6631 26.8319L37.6153 27.8536C38.2666 28.4923 38.5268 29.4806 38.1821 30.4008Z" fill="#C57A44"/>
<path d="M19.7049 46.6704C19.7049 46.1704 19.2996 45.765 18.7994 45.765C18.2993 45.765 17.894 46.1704 17.894 46.6704V59.9521C18.9336 59.7337 19.7049 58.7843 19.7049 57.681V54.334V54.3343V46.6704Z" fill="#D88A55"/>
<path d="M14.2661 45.765C13.766 45.765 13.3607 46.1704 13.3607 46.6704V56.5545C14.394 56.3437 15.1713 55.4298 15.1716 54.3344V46.6703C15.1716 46.1704 14.7663 45.765 14.2661 45.765Z" fill="#D88A55"/>
<path d="M10.6391 50.9358V46.6704C10.6391 46.1704 10.2339 45.765 9.73371 45.765C9.23355 45.765 8.82828 46.1704 8.82828 46.6704V53.1535C9.86108 52.9424 10.6385 52.0306 10.6391 50.9358Z" fill="#D88A55"/>
<path d="M13.397 21.2742C13.8971 21.2742 14.3024 20.8689 14.3024 20.3688C14.3024 19.8688 13.8971 19.4634 13.397 19.4634H5.73268C5.29529 19.4635 4.887 19.5874 4.54076 19.802C4.16254 20.0365 3.85831 20.3792 3.67155 20.7869C3.60105 20.9408 3.54781 21.1041 3.51304 21.2744H13.397V21.2742Z" fill="#FFBD86"/>
<path d="M13.3968 16.7419C13.897 16.7419 14.3022 16.3365 14.3022 15.8365C14.3022 15.3364 13.897 14.931 13.3968 14.931H5.73275H5.73287H2.33328C1.41806 14.931 0.629493 15.4736 0.271666 16.2545C0.201163 16.4085 0.147924 16.5718 0.113155 16.7419H13.3968Z" fill="#FFBD86"/>
<path d="M14.3025 11.3031C14.3025 10.8031 13.8972 10.3977 13.397 10.3977H5.73296C4.81787 10.3978 4.02942 10.9402 3.6716 11.7212C3.60109 11.8751 3.54798 12.0385 3.51321 12.2086H13.3969C13.8971 12.2086 14.3025 11.8033 14.3025 11.3031Z" fill="#FFBD86"/>
<path d="M27.5116 22.2553L37.3253 28.3232L37.6776 27.7534C37.966 27.319 38.5015 27.1201 39.0036 27.2609C40.352 27.639 41.088 29.0898 40.5968 30.4011L38.4979 36.0042H50.1291V28.7866L52.4607 27.1474C53.2075 26.6223 53.6519 25.7665 53.6519 24.8537V9.11695C53.6519 7.84632 52.8536 6.77586 51.5831 6.79989C50.3516 6.82331 49.3605 7.82882 49.3605 9.06588L49.1191 5.66628C49.1191 4.75107 48.818 3.9625 48.037 3.60479C47.75 3.47321 47.4305 3.39993 47.0941 3.39993C45.8424 3.39993 44.8277 4.41461 44.8277 5.66628L44.5862 2.26669C44.5862 1.35147 44.2852 0.562903 43.5042 0.205197C43.2117 0.0711931 42.8857 -0.0024488 42.5423 0.000448581C41.2893 0.0107102 40.2949 1.06632 40.2949 2.31944V5.6664C40.2949 5.2289 39.9294 4.94109 39.7148 4.59473C39.4803 4.21651 39.379 3.79156 38.9714 3.60479C38.6788 3.47079 38.3529 3.39715 38.0094 3.40005C36.7564 3.41031 35.762 4.46592 35.762 5.71904V21.4352L30.159 19.3363C28.8477 18.845 27.3967 19.5811 27.0187 20.9295C26.8783 21.4313 27.0772 21.9668 27.5116 22.2553Z" fill="#FFF3DE"/>
<path d="M39.3895 14.2355C39.8897 14.2355 40.295 13.8302 40.295 13.3301V2.31848V2.31933V5.66629C40.295 5.22878 40.171 4.82025 39.9563 4.47389C39.7219 4.09566 39.3793 3.79144 38.9715 3.60468C38.8175 3.53418 38.6542 3.48094 38.4841 3.44617V13.33C38.4841 13.8302 38.8895 14.2355 39.3895 14.2355Z" fill="#FFE5C2"/>
<path d="M43.9227 14.2352C44.4228 14.2352 44.8281 13.8298 44.8281 13.3298V2.26518C44.8276 1.35045 44.2853 0.562482 43.5046 0.204776C43.3507 0.134273 43.1874 0.0810333 43.0173 0.0462646V13.3297C43.0173 13.8298 43.4226 14.2352 43.9227 14.2352Z" fill="#FFE5C2"/>
<path d="M48.4551 14.2355C48.9553 14.2355 49.3605 13.8302 49.3605 13.3301V9.06589V5.66629C49.3605 4.75108 48.8181 3.96251 48.037 3.6048C47.8831 3.5343 47.7198 3.48118 47.5497 3.44641V13.3301C47.5497 13.8302 47.9551 14.2355 48.4551 14.2355Z" fill="#FFE5C2"/>
<path d="M51.5829 6.79959C51.1506 6.8078 50.7491 6.93903 50.4085 7.15694C51.0501 7.57139 51.4786 8.30189 51.4786 9.11654V24.8533C51.4786 25.7662 51.0341 26.6219 50.2874 27.147L47.9557 28.7862V36.0038H50.3702V28.7862L52.7019 27.147C53.4487 26.6219 53.893 25.7661 53.893 24.8533V9.11666C53.8932 7.84603 52.8532 6.77545 51.5829 6.79959Z" fill="#FFE5C2"/>
<path d="M57.6135 40.537C58.0122 40.537 58.3904 40.6384 58.722 40.8161C58.803 40.8386 58.8557 40.8714 58.8888 40.9139C59.5084 41.3148 59.9261 41.9986 59.9326 42.7844C59.9354 43.1279 59.8618 43.4538 59.7278 43.7463C59.37 44.5273 58.5816 45.0698 57.6663 45.0698H55.2519C56.1671 45.0698 56.9556 44.5273 57.3133 43.7463C57.4474 43.4538 57.521 43.1279 57.5181 42.7844C57.518 42.7761 57.5179 42.7676 57.5177 42.7593C57.5131 42.5297 57.321 42.3479 57.0912 42.3479H46.641C46.1453 42.3479 45.7128 41.9659 45.698 41.4703C45.6825 40.9576 46.0936 40.537 46.603 40.537H51.8521C52.2896 40.537 52.6982 40.413 53.0445 40.1984C53.4228 39.9639 53.727 39.6212 53.9138 39.2135C54.0478 38.921 54.1213 38.595 54.1185 38.2516C54.1082 36.9986 53.0526 36.0042 51.7995 36.0042H54.2071C55.4461 36.0042 56.5011 36.9733 56.5323 38.2118C56.5413 38.5699 56.4673 38.9097 56.3281 39.2134C56.1414 39.6211 55.8372 39.9637 55.4589 40.1982C55.1125 40.4129 54.704 40.5369 54.2665 40.5369H57.6135V40.537Z" fill="#C57A44"/>
<path d="M46.603 45.0699C46.0936 45.0699 45.6826 45.4904 45.6979 46.0033C45.7127 46.4988 46.145 46.8808 46.6409 46.8808H53.6913C53.9225 46.8808 54.1141 47.0649 54.118 47.2961C54.1183 47.3095 54.1184 47.3229 54.1184 47.3363C54.1184 47.6728 54.0451 47.9921 53.9135 48.2793C53.5557 49.0602 52.7673 49.6028 51.8521 49.6028H54.2665C55.1818 49.6028 55.9703 49.0602 56.328 48.2793C56.4671 47.9755 56.5411 47.6358 56.5322 47.2779C56.501 46.0391 55.446 45.0699 54.2069 45.0699H46.603Z" fill="#C57A44"/>
<path d="M50.8669 49.6022C52.146 49.6022 53.1777 50.6618 53.1318 51.9511C53.0882 53.1792 52.0415 54.1349 50.8126 54.1349H48.4013C49.672 54.1349 50.7424 53.0951 50.7184 51.8246C50.7184 51.8231 50.7184 51.8218 50.7183 51.8204C50.7134 51.5923 50.5204 51.4129 50.2924 51.4129H46.6408C46.1451 51.4129 45.7127 51.0309 45.6978 50.5354C45.6824 50.0225 46.0934 49.6021 46.6029 49.6021L50.8669 49.6022Z" fill="#C57A44"/>
</g>
<defs>
<clipPath id="clip0">
<rect width="60" height="60" fill="white"/>
</clipPath>
</defs>
</svg>
