<svg width="60" height="60" viewBox="0 0 60 60" fill="none" xmlns="http://www.w3.org/2000/svg">
<path d="M42.1875 40.3125C42.1875 41.3071 41.7924 42.2609 41.0891 42.9641C40.3859 43.6674 39.4321 44.0625 38.4375 44.0625H21.5625C20.5679 44.0625 19.6141 43.6674 18.9109 42.9641C18.2076 42.2609 17.8125 41.3071 17.8125 40.3125C18.7042 39.4208 19.4115 38.3623 19.8941 37.1972C20.3766 36.0322 20.625 34.7835 20.625 33.5225V31.875C20.625 30.6439 20.8675 29.4248 21.3386 28.2873C21.8098 27.1499 22.5003 26.1164 23.3709 25.2459C24.2414 24.3753 25.2749 23.6848 26.4123 23.2136C27.5498 22.7425 28.7688 22.5 30 22.5H30C31.2312 22.5 32.4502 22.7425 33.5877 23.2136C34.7251 23.6848 35.7586 24.3753 36.6291 25.2459C37.4997 26.1164 38.1902 27.1499 38.6614 28.2873C39.1325 29.4248 39.375 30.6438 39.375 31.875V33.5225C39.375 34.7835 39.6234 36.0322 40.1059 37.1972C40.5885 38.3623 41.2958 39.4208 42.1875 40.3125Z" fill="#AD7D4D"/>
<path d="M44.0625 57.5156V58.125H15.9375V57.5156C15.9369 55.376 16.6335 53.2946 17.9219 51.5864C19.2104 49.8782 21.0203 48.6365 23.0777 48.0492L25.1473 47.4574C25.735 47.2898 26.2521 46.9352 26.6202 46.4474C26.9884 45.9596 27.1875 45.3651 27.1875 44.7539V42.1875H32.8125V44.7539C32.8125 45.3651 33.0116 45.9596 33.3798 46.4474C33.7479 46.9352 34.265 47.2898 34.8527 47.4574L36.9223 48.0492C38.9791 48.6374 40.7885 49.8794 42.0768 51.5874C43.365 53.2953 44.0621 55.3763 44.0625 57.5156Z" fill="#F4CEAF"/>
<path d="M44.0625 57.5158V58.1251H15.9375V57.5158C15.9369 55.3762 16.6335 53.2947 17.9219 51.5865C19.2104 49.8784 21.0203 48.6366 23.0777 48.0494L25.1473 47.4576C25.6961 47.3011 26.1843 46.9812 26.5469 46.5406C26.9096 46.1 27.1295 45.5594 27.1776 44.9907L30 47.8126L32.8219 44.9908C32.8699 45.5595 33.0899 46.1002 33.4527 46.5408C33.8155 46.9814 34.3038 47.3012 34.8527 47.4576L36.9223 48.0494C38.9791 48.6376 40.7885 49.8796 42.0768 51.5875C43.365 53.2955 44.0621 55.3764 44.0625 57.5158Z" fill="#8ACCE7"/>
<path d="M29.0625 47.8125H30.9375V58.125H29.0625V47.8125Z" fill="#379EC3"/>
<path d="M20.625 56.25H22.5V58.125H20.625V56.25Z" fill="#379EC3"/>
<path d="M37.5 56.25H39.375V58.125H37.5V56.25Z" fill="#379EC3"/>
<path d="M30.9375 47.8125V50.625L30 49.3746L29.0625 50.625V47.8125H30.9375Z" fill="#2D80B3"/>
<path d="M30.0002 47.8126L27.1877 51.5626L24.7865 47.5606L25.1475 47.4575C25.6964 47.3012 26.1847 46.9814 26.5475 46.5408C26.9103 46.1001 27.1303 45.5595 27.1783 44.9907L30.0002 47.8126Z" fill="#379EC3"/>
<path d="M35.2137 47.5606L32.8125 51.5626L30 47.8126L32.8219 44.9907C32.8699 45.5595 33.0899 46.1001 33.4527 46.5408C33.8155 46.9814 34.3038 47.3012 34.8527 47.4575L35.2137 47.5606Z" fill="#379EC3"/>
<path d="M32.8125 42.1875V43.5797C30.9928 44.2234 29.0072 44.2234 27.1875 43.5797V42.1875H32.8125Z" fill="#F2C194"/>
<path d="M21.0937 36.5625H24.2188L22.5 31.875H21.0937C20.4721 31.875 19.876 32.1219 19.4365 32.5615C18.9969 33.001 18.75 33.5971 18.75 34.2188C18.75 34.8404 18.9969 35.4365 19.4365 35.876C19.876 36.3156 20.4721 36.5625 21.0937 36.5625Z" fill="#F2C194"/>
<path d="M38.906 31.875H37.4997L35.9372 36.5625H38.906C39.5276 36.5625 40.1237 36.3156 40.5632 35.876C41.0028 35.4365 41.2497 34.8404 41.2497 34.2188C41.2497 33.5971 41.0028 33.001 40.5632 32.5615C40.1237 32.1219 39.5276 31.875 38.906 31.875Z" fill="#F2C194"/>
<path d="M37.5 29.0625V35.625C37.5 37.6141 36.7098 39.5218 35.3033 40.9283C33.8968 42.3348 31.9891 43.125 30 43.125H30C28.0109 43.125 26.1032 42.3348 24.6967 40.9283C23.2902 39.5218 22.5 37.6141 22.5 35.625V29.0625L32.9297 27.1875L37.5 29.0625Z" fill="#F4CEAF"/>
<path d="M26.25 36.5625C26.7678 36.5625 27.1875 36.1428 27.1875 35.625C27.1875 35.1072 26.7678 34.6875 26.25 34.6875C25.7322 34.6875 25.3125 35.1072 25.3125 35.625C25.3125 36.1428 25.7322 36.5625 26.25 36.5625Z" fill="#966342"/>
<path d="M33.75 36.5625C34.2678 36.5625 34.6875 36.1428 34.6875 35.625C34.6875 35.1072 34.2678 34.6875 33.75 34.6875C33.2322 34.6875 32.8125 35.1072 32.8125 35.625C32.8125 36.1428 33.2322 36.5625 33.75 36.5625Z" fill="#966342"/>
<path d="M29.9998 41.0873C29.5285 41.0881 29.0617 40.9958 28.6262 40.8157C28.1906 40.6356 27.795 40.3712 27.4619 40.0377C27.2863 39.8619 27.1877 39.6235 27.1878 39.3749C27.1878 39.1264 27.2866 38.8881 27.4623 38.7123C27.6381 38.5366 27.8764 38.4378 28.1249 38.4377C28.3735 38.4377 28.6119 38.5363 28.7877 38.7119C29.1092 39.0334 29.5452 39.214 29.9998 39.214C30.4545 39.214 30.8905 39.0334 31.2119 38.7119C31.3878 38.5363 31.6262 38.4377 31.8747 38.4377C32.1232 38.4378 32.3616 38.5366 32.5373 38.7123C32.7131 38.8881 32.8118 39.1264 32.8119 39.3749C32.812 39.6235 32.7134 39.8619 32.5377 40.0377C32.2047 40.3712 31.809 40.6356 31.3735 40.8157C30.938 40.9958 30.4711 41.0881 29.9998 41.0873Z" fill="#DD6080"/>
<path d="M27.1875 34.6875H25.3125C25.0639 34.6875 24.8254 34.5887 24.6496 34.4129C24.4738 34.2371 24.375 33.9986 24.375 33.75C24.375 33.5014 24.4738 33.2629 24.6496 33.0871C24.8254 32.9113 25.0639 32.8125 25.3125 32.8125H27.1875C27.4361 32.8125 27.6746 32.9113 27.8504 33.0871C28.0262 33.2629 28.125 33.5014 28.125 33.75C28.125 33.9986 28.0262 34.2371 27.8504 34.4129C27.6746 34.5887 27.4361 34.6875 27.1875 34.6875Z" fill="#AD7D4D"/>
<path d="M34.6875 34.6875H32.8125C32.5639 34.6875 32.3254 34.5887 32.1496 34.4129C31.9738 34.2371 31.875 33.9986 31.875 33.75C31.875 33.5014 31.9738 33.2629 32.1496 33.0871C32.3254 32.9113 32.5639 32.8125 32.8125 32.8125H34.6875C34.9361 32.8125 35.1746 32.9113 35.3504 33.0871C35.5262 33.2629 35.625 33.5014 35.625 33.75C35.625 33.9986 35.5262 34.2371 35.3504 34.4129C35.1746 34.5887 34.9361 34.6875 34.6875 34.6875Z" fill="#AD7D4D"/>
<path d="M22.0312 31.875H29.0625C30.0571 31.875 31.0109 31.4799 31.7141 30.7766C32.4174 30.0734 32.8125 29.1196 32.8125 28.125C32.8125 29.1196 33.2076 30.0734 33.9109 30.7766C34.6141 31.4799 35.5679 31.875 36.5625 31.875H37.9688V27.1875H22.0312V31.875Z" fill="#AD7D4D"/>
<path d="M23.4375 17.8125C23.4384 18.6745 23.2692 19.5281 22.9393 20.3245C22.6095 21.1208 22.1257 21.8442 21.5156 22.4531C20.984 22.9839 20.3657 23.4202 19.6875 23.7434C18.8087 24.1607 17.8478 24.3765 16.875 24.375H9.375C8.5132 24.375 7.65984 24.2053 6.86364 23.8755C6.06744 23.5457 5.344 23.0623 4.73461 22.4529C4.12523 21.8435 3.64184 21.1201 3.31204 20.3239C2.98224 19.5277 2.8125 18.6743 2.8125 17.8125C2.8125 16.9507 2.98224 16.0973 3.31204 15.3011C3.64184 14.5049 4.12523 13.7815 4.73461 13.1721C5.344 12.5627 6.06744 12.0793 6.86364 11.7495C7.65984 11.4197 8.5132 11.25 9.375 11.25H16.875C17.7368 11.25 18.5902 11.4197 19.3864 11.7495C20.1826 12.0792 20.9061 12.5626 21.5155 13.172C22.1249 13.7814 22.6083 14.5049 22.938 15.3011C23.2678 16.0973 23.4375 16.9507 23.4375 17.8125Z" fill="#EEDC9A"/>
<path d="M15.9375 30.9375C16.973 30.9375 17.8125 30.098 17.8125 29.0625C17.8125 28.027 16.973 27.1875 15.9375 27.1875C14.902 27.1875 14.0625 28.027 14.0625 29.0625C14.0625 30.098 14.902 30.9375 15.9375 30.9375Z" fill="#EEDC9A"/>
<path d="M19.6875 15.9375V23.7434C18.8087 24.1607 17.8478 24.3765 16.875 24.375H15.9375V19.6875H10.3125V21.5625L6.5625 17.8125L10.3125 14.0625V15.9375H19.6875Z" fill="#E44B4D"/>
<path d="M57.1874 9.375C57.1875 10.2368 57.0178 11.0902 56.688 11.8864C56.3582 12.6826 55.8748 13.4061 55.2654 14.0155C54.656 14.6249 53.9326 15.1083 53.1364 15.438C52.3401 15.7678 51.4868 15.9375 50.6249 15.9375H43.1249C42.1521 15.939 41.1912 15.7232 40.3124 15.3059C39.6342 14.9827 39.016 14.5464 38.4843 14.0156C37.5666 13.0978 36.9417 11.9284 36.6885 10.6554C36.4353 9.38241 36.5653 8.06291 37.062 6.86378C37.5587 5.66465 38.3999 4.63972 39.4791 3.91861C40.5582 3.19749 41.827 2.81256 43.1249 2.8125H50.6249C51.4868 2.81239 52.3402 2.98206 53.1364 3.31182C53.9327 3.64158 54.6562 4.12497 55.2656 4.73437C55.875 5.34378 56.3584 6.06727 56.6881 6.86351C57.0179 7.65976 57.1876 8.51317 57.1874 9.375Z" fill="#EEDC9A"/>
<path d="M37.5 21.5625C38.5355 21.5625 39.375 20.723 39.375 19.6875C39.375 18.652 38.5355 17.8125 37.5 17.8125C36.4645 17.8125 35.625 18.652 35.625 19.6875C35.625 20.723 36.4645 21.5625 37.5 21.5625Z" fill="#EEDC9A"/>
<path d="M49.6875 13.125V11.25H44.0625V15.9375H43.125C42.1522 15.939 41.1913 15.7232 40.3125 15.3059V7.5H49.6875V5.625L53.4375 9.375L49.6875 13.125Z" fill="#E44B4D"/>
</svg>
