<svg width="60" height="60" viewBox="0 0 60 60" fill="none" xmlns="http://www.w3.org/2000/svg">
<circle cx="30" cy="30" r="30" fill="#3A4454"/>
<g clip-path="url(#clip0)">
<path d="M44.9912 15.72H15.0087C15.0039 15.72 15 15.7239 15 15.7288V45.7112C15 45.716 15.0039 45.72 15.0087 45.72H44.9912C44.996 45.72 45 45.716 45 45.7112V15.7288C45 15.7239 44.996 15.72 44.9912 15.72Z" fill="white"/>
<path d="M33.9843 37.3997C34.5703 38.3958 35.3906 39.0989 36.7382 39.0989C37.9101 39.0989 38.6718 38.5129 38.6718 37.6926C38.6718 36.7551 37.9101 36.4036 36.621 35.8176L35.9179 35.5247C33.8671 34.6458 32.5195 33.5911 32.5195 31.3059C32.5195 29.1965 34.1015 27.5559 36.621 27.5559C38.4374 27.5559 39.7265 28.2004 40.6054 29.8411L38.4374 31.2473C37.9687 30.3684 37.4414 30.0168 36.621 30.0168C35.8007 30.0168 35.2734 30.5442 35.2734 31.2473C35.2734 32.0676 35.8007 32.4192 37.0312 32.9465L37.7343 33.2395C40.1367 34.2942 41.4843 35.2903 41.4843 37.6926C41.4843 40.2122 39.4921 41.6184 36.7968 41.6184C34.1601 41.6184 32.4609 40.3879 31.6406 38.7473L33.9843 37.3997ZM24.0234 37.634C24.4921 38.3958 24.8437 39.0989 25.8398 39.0989C26.7773 39.0989 27.3632 38.7473 27.3632 37.3411V27.6145H30.1757V37.2239C30.1757 40.1536 28.4765 41.4426 25.957 41.4426C23.6718 41.4426 22.3828 40.2708 21.7382 38.8645L24.0234 37.634Z" fill="#3A4454"/>
</g>
<defs>
<clipPath id="clip0">
<rect width="30" height="30" fill="white" transform="translate(15 15.72)"/>
</clipPath>
</defs>
</svg>
