<svg width="150" height="150" viewBox="0 0 150 150" fill="none" xmlns="http://www.w3.org/2000/svg">
<circle cx="75" cy="75" r="75" fill="#3A4454"/>
<g clip-path="url(#clip0)">
<path d="M62.5024 112C69.401 112 74.9999 106.4 74.9999 99.5V87.0001H62.5024C55.6038 87.0001 50.0049 92.6001 50.0049 99.5C50.0049 106.4 55.6038 112 62.5024 112Z" fill="white"/>
<path d="M50.0049 74.5C50.0049 67.6 55.6038 62 62.5024 62H74.9999V87H62.5024C55.6038 87 50.0049 81.4 50.0049 74.5Z" fill="white"/>
<path d="M50.0049 49.5001C50.0049 42.6001 55.6038 37.0001 62.5024 37.0001H74.9999V62.0001H62.5024C55.6038 62.0001 50.0049 56.4001 50.0049 49.5001Z" fill="white"/>
<path d="M75 37.0001H87.4975C94.3961 37.0001 99.995 42.6001 99.995 49.5001C99.995 56.4001 94.3961 62.0001 87.4975 62.0001H75V37.0001Z" fill="white"/>
<path d="M99.995 74.5C99.995 81.4 94.3961 87 87.4975 87C80.5989 87 75 81.4 75 74.5C75 67.6 80.5989 62 87.4975 62C94.3961 62 99.995 67.6 99.995 74.5Z" fill="white"/>
</g>
<defs>
<clipPath id="clip0">
<rect width="50" height="75" fill="white" transform="translate(50 37)"/>
</clipPath>
</defs>
</svg>
