<svg width="512" height="500" viewBox="0 0 512 500" fill="none" xmlns="http://www.w3.org/2000/svg">
<path d="M512 256C512 265.644 511.467 275.163 510.422 284.536C510.307 285.581 510.192 286.636 510.067 287.681C509.409 292.989 508.583 298.255 507.611 303.459C507.423 304.493 507.224 305.517 507.015 306.531C488.917 396.967 423.183 470.183 337.073 498.886C324.095 501.394 319.487 493.421 319.487 486.598C319.487 478.166 319.78 450.601 319.78 416.349C319.78 392.463 311.598 376.883 302.424 368.942C346.759 364.01 392.849 349.82 411.135 297.471C411.501 296.447 411.846 295.402 412.18 294.347C413.204 291.16 414.113 287.837 414.928 284.368C415.168 283.334 415.409 282.289 415.628 281.223C418.021 269.886 419.317 257.086 419.317 242.624C419.317 214.683 409.38 191.842 392.965 173.912C395.629 167.465 404.396 141.426 390.457 106.161C390.457 106.161 368.995 99.286 320.125 132.409C299.666 126.735 277.754 123.893 256 123.789C234.245 123.893 212.344 126.736 191.916 132.409C143.004 99.286 121.5 106.161 121.5 106.161C107.603 141.426 116.37 167.465 119.024 173.912C102.65 191.842 92.64 214.684 92.64 242.624C92.64 257.075 93.936 269.875 96.339 281.212C96.558 282.278 96.788 283.323 97.029 284.357C97.844 287.826 98.764 291.159 99.788 294.346C100.122 295.401 100.478 296.446 100.833 297.47C119.108 349.725 165.073 364.114 209.283 369.14C201.958 375.535 195.323 386.83 193.024 403.381C178.416 409.922 141.364 421.228 118.533 382.096C118.533 382.096 104.991 357.52 79.287 355.712C79.287 355.712 54.303 355.388 77.542 371.271C77.542 371.271 94.313 379.15 105.963 408.731C105.963 408.731 120.989 454.424 192.209 438.939C192.324 460.328 192.554 480.495 192.554 486.597C192.554 493.357 187.862 501.288 175.062 498.916C88.9 470.235 23.092 397.009 4.984 306.531V306.521C4.775 305.507 4.576 304.483 4.399 303.459C3.417 298.255 2.591 292.989 1.943 287.681C1.807 286.636 1.692 285.591 1.577 284.536C0.533 275.163 0 265.644 0 256C0 114.615 114.636 0 256 0C397.375 0 512 114.615 512 256Z" fill="#3363FF"/>
<path d="M94.678 363.698C92.829 362.82 90.822 363.186 90.269 364.492C89.673 365.767 90.708 367.501 92.568 368.337C94.397 369.215 96.392 368.839 96.957 367.564C97.604 366.289 96.538 364.534 94.678 363.698Z" fill="#3363FF"/>
<path d="M106.6 373.802C104.918 372.026 102.608 371.493 101.355 372.621C100.112 373.77 100.425 376.163 102.097 377.94C103.717 379.727 106.109 380.26 107.332 379.131C108.607 377.981 108.272 375.609 106.6 373.802Z" fill="#3363FF"/>
<path d="M117.457 387.709C115.848 385.452 113.319 384.47 111.741 385.557C110.132 386.654 110.132 389.381 111.699 391.659C113.287 393.937 115.847 394.961 117.425 393.864C119.024 392.756 119.024 390.019 117.457 387.709Z" fill="#3363FF"/>
<path d="M129.849 401.575C127.644 399.475 124.635 399.046 123.214 400.593C121.814 402.139 122.43 405.076 124.666 407.134C126.86 409.245 129.849 409.663 131.249 408.116C132.744 406.58 132.065 403.634 129.849 401.575Z" fill="#3363FF"/>
<path d="M146.139 411.136C143.213 410.227 140.319 411.178 139.723 413.194C139.138 415.221 141.029 417.572 143.923 418.45C146.828 419.296 149.701 418.387 150.328 416.381C150.925 414.344 149.034 412.014 146.139 411.136Z" fill="#3363FF"/>
<path d="M165.742 414.187C162.68 414.239 160.277 415.963 160.277 418.095C160.308 420.174 162.785 421.888 165.846 421.815C168.887 421.784 171.353 420.028 171.279 417.918C171.28 415.828 168.782 414.124 165.742 414.187Z" fill="#3363FF"/>
<path d="M190.777 414.605C190.39 412.505 187.674 411.272 184.654 411.794C181.676 412.337 179.524 414.458 179.9 416.569C180.276 418.607 183.024 419.881 186.002 419.338C189.022 418.774 191.133 416.664 190.777 414.605Z" fill="#3363FF"/>
</svg>
