<svg width="50" height="50" viewBox="0 0 50 50" fill="none" xmlns="http://www.w3.org/2000/svg">
<path d="M50 25C50 25.9418 49.9479 26.8714 49.8459 27.7867C49.8347 27.8888 49.8234 27.9918 49.8112 28.0938C49.747 28.6122 49.6663 29.1265 49.5714 29.6347C49.553 29.7356 49.5336 29.8356 49.5132 29.9347C47.7458 38.7663 41.3265 45.9163 32.9173 48.7193C31.6499 48.9643 31.1999 48.1856 31.1999 47.5193C31.1999 46.6959 31.2285 44.004 31.2285 40.6591C31.2285 38.3265 30.4295 36.805 29.5336 36.0295C33.8632 35.5478 38.3642 34.1621 40.1499 29.0499C40.1856 28.9499 40.2193 28.8478 40.252 28.7448C40.352 28.4336 40.4407 28.1091 40.5203 27.7703C40.5438 27.6693 40.5673 27.5673 40.5887 27.4632C40.8224 26.3561 40.9489 25.1061 40.9489 23.6937C40.9489 20.9651 39.9785 18.7346 38.3755 16.9836C38.6356 16.354 39.4918 13.8111 38.1306 10.3673C38.1306 10.3673 36.0347 9.6959 31.2622 12.9306C29.2643 12.3765 27.1244 12.0989 25 12.0888C22.8755 12.0989 20.7367 12.3766 18.7418 12.9306C13.9652 9.6959 11.8652 10.3673 11.8652 10.3673C10.5081 13.8111 11.3643 16.354 11.6234 16.9836C10.0244 18.7346 9.04687 20.9652 9.04687 23.6937C9.04687 25.105 9.17344 26.355 9.40811 27.4621C9.42949 27.5662 9.45195 27.6683 9.47549 27.7692C9.55508 28.108 9.64492 28.4335 9.74492 28.7447C9.77754 28.8478 9.8123 28.9498 9.84697 29.0498C11.6316 34.1528 16.1204 35.558 20.4378 36.0488C19.7225 36.6733 19.0745 37.7764 18.85 39.3927C17.4234 40.0314 13.8051 41.1355 11.5755 37.3141C11.5755 37.3141 10.253 34.9141 7.74287 34.7375C7.74287 34.7375 5.30303 34.7059 7.57246 36.2569C7.57246 36.2569 9.21025 37.0264 10.3479 39.9151C10.3479 39.9151 11.8153 44.3773 18.7704 42.8651C18.7816 44.9539 18.8041 46.9233 18.8041 47.5192C18.8041 48.1794 18.3459 48.9539 17.0959 48.7223C8.68164 45.9214 2.25508 38.7704 0.486719 29.9347V29.9337C0.466309 29.8347 0.446875 29.7347 0.42959 29.6347C0.333691 29.1265 0.253027 28.6122 0.189746 28.0938C0.176465 27.9918 0.165234 27.8897 0.154004 27.7867C0.0520508 26.8714 0 25.9418 0 25C0 11.1929 11.1949 0 25 0C38.8062 0 50 11.1929 50 25Z" fill="white"/>
<path d="M9.24604 35.5174C9.06548 35.4316 8.86948 35.4674 8.81548 35.5949C8.75728 35.7194 8.85835 35.8888 9.03999 35.9704C9.2186 36.0561 9.41343 36.0194 9.4686 35.8949C9.53179 35.7704 9.42769 35.599 9.24604 35.5174Z" fill="white"/>
<path d="M10.4103 36.5041C10.246 36.3306 10.0205 36.2786 9.8981 36.3887C9.77671 36.501 9.80728 36.7346 9.97056 36.9082C10.1288 37.0827 10.3624 37.1347 10.4818 37.0245C10.6063 36.9122 10.5736 36.6805 10.4103 36.5041Z" fill="white"/>
<path d="M11.4705 37.8622C11.3134 37.6418 11.0664 37.5459 10.9123 37.6521C10.7552 37.7592 10.7552 38.0255 10.9082 38.248C11.0633 38.4704 11.3133 38.5704 11.4674 38.4633C11.6235 38.3551 11.6235 38.0878 11.4705 37.8622Z" fill="white"/>
<path d="M12.6806 39.2163C12.4652 39.0112 12.1714 38.9693 12.0326 39.1204C11.8959 39.2714 11.956 39.5582 12.1744 39.7592C12.3887 39.9653 12.6806 40.0061 12.8173 39.8551C12.9633 39.7051 12.897 39.4174 12.6806 39.2163Z" fill="white"/>
<path d="M14.2712 40.15C13.9855 40.0612 13.7029 40.1541 13.6447 40.351C13.5875 40.5489 13.7722 40.7785 14.0548 40.8643C14.3385 40.9469 14.6191 40.8581 14.6803 40.6622C14.7386 40.4633 14.5539 40.2358 14.2712 40.15Z" fill="white"/>
<path d="M16.1857 40.4479C15.8866 40.453 15.652 40.6214 15.652 40.8296C15.655 41.0326 15.8969 41.2 16.1958 41.1929C16.4928 41.1898 16.7336 41.0184 16.7264 40.8123C16.7265 40.6082 16.4825 40.4418 16.1857 40.4479Z" fill="white"/>
<path d="M18.6307 40.4888C18.5929 40.2837 18.3276 40.1633 18.0327 40.2143C17.7419 40.2673 17.5317 40.4744 17.5685 40.6806C17.6052 40.8796 17.8735 41.004 18.1644 40.951C18.4593 40.8959 18.6654 40.6898 18.6307 40.4888Z" fill="white"/>
</svg>
