<svg width="80" height="75" viewBox="0 0 80 75" fill="none" xmlns="http://www.w3.org/2000/svg">
<path d="M58.001 29.7055L56.2272 27.871C55.6125 27.2679 54.8946 26.9663 54.0751 26.9663C53.2387 26.9663 52.5294 27.2679 51.9458 27.871L40.4495 39.7576L28.9533 27.8713C28.3698 27.2683 27.6603 26.9667 26.8242 26.9667C26.0043 26.9667 25.2866 27.2683 24.6718 27.8713L22.9213 29.7059C22.322 30.3251 22.0225 31.0672 22.0225 31.9314C22.0225 32.8118 22.3223 33.5455 22.9212 34.1324L38.3204 50.0539C38.8883 50.6732 39.5976 50.9832 40.4494 50.9832C41.2852 50.9832 42.0029 50.6733 42.6017 50.0539L58.0009 34.1324C58.5844 33.529 58.8764 32.7953 58.8764 31.9314C58.8765 31.0833 58.5845 30.3416 58.001 29.7055Z" fill="#3A4454"/>
<path d="M40 0C17.9087 0 0 16.7894 0 37.5C0 58.2106 17.9087 75 40 75C62.081 74.9766 79.975 58.2009 80 37.5C80 16.7894 62.0913 0 40 0ZM40 70.8975C19.3813 70.8975 4.37595 56.83 4.37595 37.5C4.37595 18.17 19.3813 4.10245 40 4.10245C60.6088 4.12448 76.05 18.1792 76.0735 37.5C76.0735 56.83 60.6187 70.8975 40 70.8975Z" fill="#3A4454"/>
</svg>
