<svg width="52" height="52" viewBox="0 0 52 52" fill="none" xmlns="http://www.w3.org/2000/svg">
<g clip-path="url(#clip0)">
<path d="M51.987 51.9998V51.9977H52V32.9267C52 23.597 49.9915 16.4102 39.0845 16.4102C33.8412 16.4102 30.3225 19.2875 28.886 22.0153H28.7343V17.2812H18.3928V51.9977H29.1612V34.8073C29.1612 30.2812 30.0192 25.9045 35.6243 25.9045C41.1472 25.9045 41.2295 31.0698 41.2295 35.0977V51.9998H51.987Z" fill="#3A4454"/>
<path d="M0.858032 17.2837H11.6394V52.0002H0.858032V17.2837Z" fill="#3A4454"/>
<path d="M6.24433 0C2.79717 0 0 2.79717 0 6.24433C0 9.6915 2.79717 12.5472 6.24433 12.5472C9.6915 12.5472 12.4887 9.6915 12.4887 6.24433C12.4865 2.79717 9.68933 0 6.24433 0V0Z" fill="#3A4454"/>
</g>
<defs>
<clipPath id="clip0">
<rect width="52" height="52" fill="white"/>
</clipPath>
</defs>
</svg>
