<svg width="40" height="40" viewBox="0 0 40 40" fill="none" xmlns="http://www.w3.org/2000/svg">
<path d="M0.835 7.43406C6.32484 12.0834 15.9578 20.2629 18.7891 22.8133C19.1691 23.1575 19.5768 23.3325 20 23.3325C20.4223 23.3325 20.8293 23.1591 21.2085 22.8166C24.0422 20.2637 33.6752 12.0834 39.1651 7.43406C39.5069 7.14516 39.559 6.63734 39.2823 6.28414C38.6426 5.46797 37.6888 5 36.6666 5H3.33336C2.31125 5 1.35742 5.46797 0.717812 6.28422C0.441093 6.63734 0.493203 7.14516 0.835 7.43406Z" fill="white"/>
<path d="M39.5166 9.95358C39.2212 9.81608 38.8737 9.86404 38.628 10.074C32.5398 15.2351 24.7697 21.8506 22.325 24.0535C20.9529 25.2921 19.0486 25.2921 17.6733 24.0519C15.0675 21.704 6.34187 14.2862 1.37203 10.074C1.12461 9.86397 0.776328 9.81764 0.483359 9.9535C0.188828 10.0903 0 10.3849 0 10.7096V31.6666C0 33.5051 1.49492 35 3.33336 35H36.6667C38.5051 35 40 33.5051 40 31.6666V10.7096C40 10.3849 39.8112 10.0895 39.5166 9.95358Z" fill="white"/>
</svg>
