<svg width="54" height="54" viewBox="0 0 54 54" fill="none" xmlns="http://www.w3.org/2000/svg">
<path d="M1.1272 10.036C8.53849 16.3125 21.543 27.3549 25.3652 30.7979C25.8783 31.2626 26.4286 31.4989 26.9999 31.4989C27.5701 31.4989 28.1195 31.2648 28.6314 30.8024C32.4569 27.356 45.4614 16.3125 52.8728 10.036C53.3342 9.64596 53.4046 8.96041 53.031 8.48359C52.1674 7.38176 50.8799 6.75 49.4999 6.75H4.49998C3.12014 6.75 1.83247 7.38176 0.968996 8.4837C0.595426 8.96041 0.665773 9.64596 1.1272 10.036Z" fill="#3A4454"/>
<path d="M53.3475 13.4374C52.9487 13.2518 52.4796 13.3165 52.1478 13.6C43.9288 20.5675 33.4391 29.4984 30.1388 32.4723C28.2864 34.1444 25.7156 34.1444 23.8589 32.4701C20.3411 29.3005 8.56153 19.2865 1.85224 13.5999C1.51822 13.3164 1.04804 13.2539 0.652535 13.4373C0.254918 13.622 0 14.0197 0 14.458V42.75C0 45.2319 2.01814 47.25 4.50004 47.25H49.5001C51.9819 47.25 54 45.2319 54 42.75V14.458C54 14.0197 53.7451 13.6209 53.3475 13.4374Z" fill="#3A4454"/>
</svg>
