<svg width="30" height="30" viewBox="0 0 30 30" fill="none" xmlns="http://www.w3.org/2000/svg">
<path d="M28.75 16.2241H1.25C0.559998 16.2241 0 15.664 0 14.974C0 14.284 0.559998 13.7241 1.25 13.7241H28.75C29.44 13.7241 30 14.284 30 14.974C30 15.664 29.44 16.2241 28.75 16.2241Z" fill="white"/>
<path d="M28.75 6.64062H1.25C0.559998 6.64062 0 6.08063 0 5.39062C0 4.70062 0.559998 4.14062 1.25 4.14062H28.75C29.44 4.14062 30 4.70062 30 5.39062C30 6.08063 29.44 6.64062 28.75 6.64062Z" fill="white"/>
<path d="M28.75 25.8072H1.25C0.559998 25.8072 0 25.2472 0 24.5572C0 23.8672 0.559998 23.3071 1.25 23.3071H28.75C29.44 23.3071 30 23.8672 30 24.5572C30 25.2472 29.44 25.8072 28.75 25.8072Z" fill="white"/>
</svg>
