<svg width="60" height="60" viewBox="0 0 60 60" fill="none" xmlns="http://www.w3.org/2000/svg">
<g clip-path="url(#clip0)">
<path d="M46.6017 1.65736V1.65124C45.5509 0.594905 44.1225 0.00061157 42.6326 0H16.5614C13.4648 0.0100909 10.9572 2.51768 10.9471 5.61422V53.5797C10.9478 55.0696 11.542 56.4979 12.5984 57.5488C13.6477 58.6036 15.0736 59.1977 16.5614 59.2H42.6387C44.1265 59.1977 45.5524 58.6036 46.6017 57.5488C47.6565 56.4995 48.2506 55.0736 48.2529 53.5858V5.62033C48.2506 4.13253 47.6565 2.70666 46.6017 1.65736ZM29.6 55.3899C28.7623 55.3899 28.0833 54.7109 28.0833 53.8732C28.0833 53.0355 28.7623 52.3565 29.6 52.3565C30.4377 52.3565 31.1167 53.0355 31.1167 53.8732C31.1167 54.7109 30.4377 55.3899 29.6 55.3899ZM43.7946 45.8678C43.7946 47.8944 42.1518 49.5372 40.1252 49.5372H19.0688C17.0422 49.5372 15.3994 47.8944 15.3994 45.8678V10.1215C15.3994 8.0949 17.0422 6.45207 19.0688 6.45207H40.1313C42.1579 6.45207 43.8007 8.0949 43.8007 10.1215L43.7946 45.8678Z" fill="#3A4454"/>
</g>
<defs>
<clipPath id="clip0">
<rect width="59.2" height="59.2" fill="white"/>
</clipPath>
</defs>
</svg>
