<svg width="60" height="60" viewBox="0 0 60 60" fill="none" xmlns="http://www.w3.org/2000/svg">
<circle cx="30" cy="30" r="30" fill="#3A4454"/>
<path d="M31.4399 44.5651C31.0858 44.5652 30.7379 44.4721 30.4312 44.2951L27.2212 42.3948C26.7421 42.1266 26.9756 42.0319 27.134 41.9766C27.6435 41.8192 28.1313 41.5988 28.5862 41.3204C28.6243 41.3028 28.6662 41.2952 28.708 41.2983C28.7499 41.3014 28.7902 41.3151 28.8252 41.3382L31.2918 42.8035C31.3377 42.8278 31.3889 42.8405 31.4409 42.8405C31.4928 42.8405 31.544 42.8278 31.5899 42.8035L41.2087 37.2516C41.2537 37.2247 41.2909 37.1865 41.3167 37.1408C41.3425 37.0951 41.356 37.0435 41.3559 36.991V25.8854C41.3559 25.8321 41.3422 25.7797 41.3161 25.7332C41.29 25.6867 41.2523 25.6478 41.2068 25.6201L31.5881 20.0729C31.5427 20.0473 31.4915 20.0339 31.4395 20.0339C31.3874 20.0339 31.3362 20.0473 31.2909 20.0729L21.6777 25.6219C21.6319 25.6491 21.5938 25.6876 21.5672 25.7337C21.5406 25.7799 21.5264 25.8321 21.5259 25.8854V36.9863C21.526 37.0387 21.54 37.09 21.5666 37.1352C21.5931 37.1803 21.6311 37.2176 21.6768 37.2432L24.3149 38.7657C25.7446 39.4801 26.6202 38.6382 26.6202 37.7926V26.8323C26.6202 26.7577 26.6499 26.6861 26.7026 26.6334C26.7554 26.5806 26.8269 26.551 26.9015 26.551H28.1202C28.1948 26.551 28.2664 26.5806 28.3191 26.6334C28.3719 26.6861 28.4015 26.7577 28.4015 26.8323V37.7935C28.4015 39.7013 27.3627 40.7935 25.5534 40.7935C24.7728 40.8071 24.0044 40.5983 23.3381 40.1916L20.8096 38.7413C20.5027 38.5626 20.248 38.3064 20.071 37.9985C19.894 37.6905 19.8008 37.3415 19.8009 36.9863V25.8854C19.8 25.5296 19.8927 25.1799 20.0698 24.8713C20.2468 24.5628 20.502 24.3063 20.8096 24.1276L30.4293 18.5738C30.7392 18.4043 31.0867 18.3154 31.4399 18.3154C31.7931 18.3154 32.1407 18.4043 32.4506 18.5738L42.0693 24.1276C42.3762 24.306 42.631 24.5617 42.8081 24.8694C42.9853 25.177 43.0787 25.5257 43.079 25.8807V36.9863C43.0785 37.3415 42.985 37.6904 42.8079 37.9983C42.6307 38.3062 42.3761 38.5623 42.0693 38.7413L32.4506 44.2951C32.1433 44.4724 31.7947 44.5655 31.4399 44.5651Z" fill="white"/>
<path d="M29.6154 33.2709C29.6154 33.1963 29.645 33.1248 29.6977 33.0721C29.7505 33.0193 29.822 32.9897 29.8966 32.9897H31.1407C31.2072 32.9899 31.2714 33.0136 31.322 33.0567C31.3727 33.0998 31.4064 33.1594 31.4172 33.225C31.6047 34.4916 32.1672 35.13 34.7107 35.13C36.7366 35.13 37.6001 34.6716 37.6001 33.5962C37.6001 32.9766 37.3554 32.5162 34.2063 32.2078C31.5738 31.9472 29.9463 31.3641 29.9463 29.2603C29.9463 27.3197 31.5822 26.1619 34.3244 26.1619C37.406 26.1619 38.9313 27.2316 39.1244 29.5266C39.1274 29.5649 39.1224 29.6034 39.1099 29.6397C39.0974 29.6761 39.0776 29.7094 39.0517 29.7378C39.0258 29.7662 38.9943 29.7889 38.9593 29.8047C38.9242 29.8204 38.8863 29.8288 38.8479 29.8294H37.5954C37.5325 29.8285 37.4718 29.8066 37.4229 29.7672C37.3739 29.7277 37.3396 29.6731 37.3254 29.6119C37.0263 28.2797 36.2941 27.8541 34.3254 27.8541C32.1129 27.8541 31.856 28.6247 31.856 29.2022C31.856 29.9016 32.1597 30.1059 35.1466 30.5006C38.1026 30.8916 39.5069 31.4447 39.5069 33.5222C39.5069 35.6184 37.7594 36.8184 34.7116 36.8184C30.4976 36.8241 29.6154 34.8919 29.6154 33.2709Z" fill="white"/>
</svg>
