<svg width="60" height="60" viewBox="0 0 60 60" fill="none" xmlns="http://www.w3.org/2000/svg">
<circle cx="30" cy="30" r="30" fill="#3A4454"/>
<path d="M18.2501 29.6775L25.4751 22.44L27.5876 24.565C27.2876 25.6275 27.7751 26.79 28.7501 27.3525V34.2775C28.0001 34.7025 27.5001 35.515 27.5001 36.44C27.5001 37.103 27.7635 37.7389 28.2324 38.2077C28.7012 38.6766 29.3371 38.94 30.0001 38.94C30.6632 38.94 31.2991 38.6766 31.7679 38.2077C32.2368 37.7389 32.5001 37.103 32.5001 36.44C32.5001 35.515 32.0001 34.7025 31.2501 34.2775V28.2025L33.8376 30.815C33.7501 31.0025 33.7501 31.215 33.7501 31.44C33.7501 32.103 34.0135 32.7389 34.4824 33.2077C34.9512 33.6766 35.5871 33.94 36.2501 33.94C36.9132 33.94 37.5491 33.6766 38.0179 33.2077C38.4868 32.7389 38.7501 32.103 38.7501 31.44C38.7501 30.7769 38.4868 30.141 38.0179 29.6722C37.5491 29.2034 36.9132 28.94 36.2501 28.94C36.0251 28.94 35.8126 28.94 35.6251 29.0275L32.4126 25.815C32.7376 24.6525 32.1376 23.3775 30.9751 22.89C30.4376 22.69 29.8751 22.64 29.3751 22.7775L27.2501 20.665L28.2376 19.69C29.2126 18.7025 30.7876 18.7025 31.7626 19.69L41.7501 29.6775C42.7376 30.6525 42.7376 32.2275 41.7501 33.2025L31.7626 43.19C30.7876 44.1775 29.2126 44.1775 28.2376 43.19L18.2501 33.2025C17.2626 32.2275 17.2626 30.6525 18.2501 29.6775Z" fill="white"/>
</svg>
