<svg width="60" height="60" viewBox="0 0 60 60" fill="none" xmlns="http://www.w3.org/2000/svg">
<circle cx="30" cy="30" r="30" fill="#3A4454"/>
<g clip-path="url(#clip0)">
<path d="M19.5865 21.6881L21.4819 42.7629L29.9871 45.0321L38.5161 42.8058L40.4136 21.6881H19.5865V21.6881ZM36.4711 26.486L36.3523 27.8534L36.3 28.485H26.3229L26.5613 31.2975H36.0629L35.9993 31.8204L35.3864 38.5959L35.3414 38.992L30 40.4297V40.4285L29.9937 40.4313L24.6554 39.0448L24.293 35.0475H26.9105L27.0959 37.0303L29.9986 37.766L30 37.7112V37.714L32.9091 37.0931L33.2129 33.8756H24.1765L23.5357 26.6484L23.4732 25.9069H36.5335L36.4711 26.486V26.486ZM21.5522 15.7413H22.8699V17.0435H24.0755V15.7413H25.3934V19.684H24.0755V18.3638H22.8701V19.684H21.5522V15.7413V15.7413ZM27.1261 17.0489H25.966V15.7413H29.6046V17.0489H28.444V19.684H27.1261V17.0489V17.0489ZM30.1821 15.7413H31.5561L32.4014 17.1267L33.2459 15.7413H34.6205V19.684H33.3078V17.7298L32.4014 19.1316H32.3785L31.4714 17.7298V19.684H30.1819V15.7413H30.1821ZM35.2765 15.7413H36.5946V18.3809H38.4479V19.6842H35.2765V15.7413V15.7413Z" fill="white"/>
</g>
<defs>
<clipPath id="clip0">
<rect width="30" height="30" fill="white" transform="translate(15 15.36)"/>
</clipPath>
</defs>
</svg>
