<svg width="60" height="60" viewBox="0 0 60 60" fill="none" xmlns="http://www.w3.org/2000/svg">
<circle cx="30" cy="30" r="30" fill="#3A4454"/>
<g clip-path="url(#clip0)">
<path d="M30 28.7643C28.5253 28.7643 27.3243 29.9653 27.3243 31.44C27.3243 32.9147 28.5253 34.1156 30 34.1156C31.4746 34.1156 32.6756 32.9147 32.6756 31.44C32.6756 29.9653 31.4746 28.7643 30 28.7643ZM22.5093 36.7575L21.9187 36.6112C17.5237 35.4975 15 33.6131 15 31.4353C15 29.2575 17.5246 27.3731 21.9187 26.2593L22.5093 26.1131L22.6753 26.699C23.1196 28.2318 23.6906 29.7262 24.3796 31.1718L24.5062 31.4353L24.3796 31.7034C23.6915 33.1434 23.1196 34.6378 22.6753 36.1762L22.5093 36.7575ZM21.6459 27.6262C18.3056 28.5637 16.2553 30.0037 16.2553 31.4353C16.2553 32.8668 18.3065 34.3012 21.6459 35.2443C22.0565 33.9403 22.5496 32.6709 23.1253 31.4353C22.5487 30.1997 22.0556 28.9303 21.6459 27.6262ZM37.4906 36.7575L37.3246 36.1715C36.8803 34.6387 36.3093 33.1443 35.6203 31.7034L35.4937 31.4353L35.6203 31.1672C36.3084 29.7272 36.8803 28.2328 37.3246 26.6943L37.4906 26.1131L38.0812 26.2593C42.4762 27.3731 45 29.2575 45 31.4353C45 33.6131 42.4753 35.4975 38.0812 36.6112L37.4906 36.7575ZM36.8746 31.4353C37.4756 32.7337 37.9734 34.0087 38.354 35.2443C41.699 34.3022 43.7446 32.8668 43.7446 31.4353C43.7446 30.0037 41.6934 28.5693 38.354 27.6262C37.9434 28.9247 37.4503 30.1997 36.8746 31.4353ZM21.6356 27.6215L21.4696 27.0356C20.234 22.68 20.61 19.5553 22.5 18.4659C24.3553 17.3962 27.329 18.6609 30.449 21.8643L30.8737 22.2993L30.449 22.7343C29.3409 23.8865 28.3303 25.1268 27.4218 26.445L27.2512 26.684L26.9578 26.7084C25.3612 26.835 23.7787 27.089 22.2262 27.4706L21.6356 27.6215ZM24.0084 19.3359C23.6718 19.3359 23.3737 19.4043 23.1243 19.5506C21.884 20.2687 21.6646 22.7587 22.5187 26.1178C23.8518 25.8197 25.199 25.6097 26.5621 25.4878C27.3431 24.374 28.2028 23.31 29.1253 22.3087C27.1771 20.4093 25.3312 19.335 24.0084 19.335V19.3359ZM35.9962 44.7843C35.9915 44.7843 35.9915 44.7843 35.9962 44.7843C34.214 44.7843 31.9237 43.4465 29.5509 41.0053L29.1262 40.5703L29.5509 40.1353C30.659 38.9831 31.6696 37.7428 32.5781 36.4247L32.744 36.1856L33.0375 36.1565C34.634 36.0347 36.2165 35.7806 37.7737 35.3943L38.3643 35.2481L38.5303 35.834C39.7659 40.1897 39.39 43.3097 37.5 44.3981C37.0406 44.6615 36.5231 44.7937 35.9962 44.7834V44.7843ZM30.8737 40.5609C32.8218 42.4603 34.6678 43.5347 35.9906 43.5347H35.9953C36.3271 43.5347 36.6253 43.4615 36.8746 43.32C38.115 42.6018 38.34 40.1118 37.4803 36.7528C36.1471 37.0509 34.7943 37.2609 33.4368 37.3781C32.6559 38.4965 31.7962 39.5559 30.8737 40.5618V40.5609ZM38.3643 27.6215L37.7737 27.4706C36.2165 27.09 34.634 26.8359 33.0375 26.7084L32.744 26.684L32.5781 26.445C31.6696 25.1268 30.659 23.8865 29.5509 22.7343L29.1262 22.2993L29.5509 21.8643C32.6709 18.6609 35.6446 17.3962 37.5 18.4659C39.39 19.5543 39.7659 22.68 38.5303 27.0356L38.3643 27.6215ZM33.4378 25.4878C34.8637 25.62 36.2212 25.83 37.4812 26.1178C38.3409 22.7587 38.1159 20.2678 36.8756 19.5506C35.64 18.8381 33.3159 19.9312 30.8746 22.3097C31.7971 23.3156 32.6521 24.375 33.4378 25.4887V25.4878ZM24.0084 44.7843C23.4806 44.7937 22.9584 44.6625 22.5 44.399C20.61 43.3106 20.234 40.1897 21.4696 35.835L21.6356 35.249L22.2262 35.3953C23.6718 35.7618 25.2637 36.015 26.9578 36.1575L27.2512 36.1865L27.4171 36.4256C28.3256 37.7437 29.3362 38.984 30.4443 40.1362L30.869 40.5712L30.4443 41.0062C28.0762 43.4475 25.7859 44.7853 24.0084 44.7853V44.7843ZM22.5196 36.7528C21.66 40.1118 21.885 42.6028 23.1253 43.32C24.3609 44.0231 26.6803 42.9393 29.1262 40.5609C28.2037 39.555 27.344 38.4956 26.5631 37.3772C25.2009 37.26 23.8528 37.05 22.5196 36.7518V36.7528ZM30 37.5384C28.9696 37.5384 27.915 37.4943 26.8556 37.4062L26.5621 37.3818L26.3915 37.1381C25.7962 36.2784 25.229 35.3953 24.7068 34.4868C24.179 33.5784 23.6962 32.6512 23.2471 31.7034L23.1206 31.4353L23.2471 31.1672C23.6962 30.2203 24.18 29.2922 24.7068 28.3837C25.2243 27.4903 25.7906 26.5968 26.3915 25.7325L26.5621 25.4887L26.8556 25.4643C28.95 25.2881 31.0546 25.2881 33.1443 25.4643L33.4378 25.4887L33.6084 25.7325C34.8046 27.4509 35.8593 29.2725 36.7528 31.1672L36.8793 31.4353L36.7528 31.7034C35.8593 33.5981 34.8093 35.4197 33.6084 37.1381L33.4378 37.3818L33.1443 37.4062C32.0896 37.4943 31.0303 37.5384 30 37.5384ZM27.2559 36.1809C29.1018 36.3225 30.8981 36.3225 32.7487 36.1809C33.779 34.6725 34.6968 33.0853 35.4928 31.4343C34.7015 29.7843 33.7837 28.1972 32.744 26.6878C30.9178 26.5462 29.0821 26.5462 27.2559 26.6878C26.2162 28.1962 25.2975 29.7834 24.5071 31.4343C25.3031 33.0843 26.2209 34.6715 27.2559 36.1809Z" fill="white"/>
</g>
<defs>
<clipPath id="clip0">
<rect width="30" height="30" fill="white" transform="translate(15 16.4399)"/>
</clipPath>
</defs>
</svg>
